<svg width="174" height="40" viewBox="0 0 174 40" fill="none" xmlns="http://www.w3.org/2000/svg">
<path d="M49.3523 29.1034H46.2785V28.7785C46.2785 26.9409 45.5021 26.0232 43.9473 26.0232C43.1034 26.0232 42.4958 26.2827 42.1266 26.7996C41.903 27.1244 41.768 27.4704 41.7194 27.8418C41.6793 28.1962 41.6604 28.6055 41.6604 29.0696V34.327C41.6604 35.4304 41.7722 36.2194 41.9958 36.6899C42.327 37.3692 42.9916 37.7089 43.9916 37.7089C45.5739 37.7089 46.365 36.6751 46.365 34.6055V34.211H49.4388C49.4494 34.481 49.4536 34.6772 49.4536 34.8017C49.4536 36.3312 49.0654 37.5422 48.289 38.4367C47.3755 39.4789 45.9452 40 43.9916 40C41.9241 40 40.4367 39.4135 39.5338 38.2405C39.0591 37.6308 38.7764 36.9557 38.6899 36.2131C38.6118 35.5949 38.5739 34.8544 38.5739 33.9894V29.578C38.5739 28.0654 38.6962 27.0147 38.9388 26.4282C39.365 25.3797 40.1435 24.6329 41.2701 24.1941C42.0464 23.8861 42.941 23.7299 43.9494 23.7299C45.6393 23.7299 46.9557 24.1434 47.8966 24.9683C48.8777 25.8333 49.3671 27.0422 49.3671 28.5928C49.3671 28.7173 49.3629 28.8861 49.3523 29.1034Z" fill="black"/>
<path d="M62.7954 28.9873V34.7426C62.7954 35.8924 62.6499 36.7932 62.3587 37.4409C61.5824 39.1477 59.922 40 57.3777 40C55.4347 40 54.0043 39.4937 53.0803 38.4831C52.595 37.943 52.2786 37.3397 52.133 36.6772C52.0064 36.0823 51.9431 35.4388 51.9431 34.7426V28.9873C51.9431 27.8375 52.0887 26.9367 52.3798 26.289C53.1667 24.5823 54.8313 23.7299 57.3756 23.7299C59.3081 23.7299 60.7343 24.2363 61.6583 25.2468C62.1541 25.7869 62.4684 26.3903 62.6056 27.0527C62.7322 27.6477 62.7954 28.2911 62.7954 28.9873ZM55.0317 29.0337V34.6962C55.0317 35.4536 55.0697 35.9705 55.1478 36.2489C55.4284 37.2215 56.1731 37.7067 57.3756 37.7067C58.2976 37.7067 58.9431 37.4219 59.3123 36.8502C59.517 36.5422 59.633 36.2025 59.6625 35.8312C59.6921 35.5232 59.7068 35.1434 59.7068 34.6962V29.0337C59.7068 28.27 59.6689 27.7489 59.5908 27.4704C59.3187 26.5063 58.5803 26.0232 57.3777 26.0232C56.4452 26.0232 55.7954 26.308 55.4262 26.8797C55.2216 27.1877 55.1056 27.5253 55.076 27.8882C55.0465 28.2046 55.0317 28.5865 55.0317 29.0337Z" fill="black"/>
<path d="M68.7236 33.2827V39.2405C68.7236 39.5316 68.4873 39.7679 68.1962 39.7679H66.1624C65.8713 39.7679 65.635 39.5316 65.635 39.2405V25.0147C65.635 24.4325 66.1076 23.9599 66.6899 23.9599H70.4705C72.1793 23.9599 73.4895 24.2763 74.403 24.9093C75.5865 25.7278 76.1793 26.9198 76.1793 28.4873C76.1793 30.4958 75.2869 31.865 73.5 32.5991L76.4283 39.7679H73.9051C73.4768 39.7679 73.0886 39.5084 72.9283 39.1097L70.5591 33.2827H68.7236ZM68.7236 31.0253H69.846C70.692 31.0253 71.2932 30.9641 71.6519 30.8396C72.5549 30.5316 73.0063 29.789 73.0063 28.616C73.0063 27.751 72.7532 27.1223 72.249 26.7278C71.9578 26.4894 71.6034 26.3417 71.1857 26.2869C70.8165 26.2405 70.3692 26.2173 69.846 26.2173H68.7236V31.0232V31.0253Z" fill="black"/>
<path d="M81.8186 33.365V39.2405C81.8186 39.5316 81.5823 39.7679 81.2912 39.7679H79.2574C78.9663 39.7679 78.73 39.5316 78.73 39.2405V25.0147C78.73 24.4325 79.2026 23.9599 79.7848 23.9599H83.8418C85.7448 23.9599 87.1393 24.2995 88.0232 24.9789C89.0718 25.7827 89.5971 27.0084 89.5971 28.6624C89.5971 30.3164 89.0718 31.5422 88.0232 32.346C87.46 32.7869 86.7848 33.0717 85.9979 33.2025C85.3481 33.3101 84.6287 33.365 83.8418 33.365H81.8165H81.8186ZM81.8186 31.1076H83.1583C84.2954 31.1076 85.0907 30.9641 85.5464 30.6793C86.1287 30.3312 86.4198 29.6603 86.4198 28.6645C86.4198 27.6688 86.1287 26.9979 85.5464 26.6498C85.0907 26.365 84.2933 26.2215 83.1583 26.2215H81.8186V31.1076Z" fill="black"/>
<path d="M102.34 28.9873V34.7426C102.34 35.8924 102.194 36.7932 101.903 37.4409C101.127 39.1477 99.4663 40 96.922 40C94.979 40 93.5486 39.4937 92.6246 38.4831C92.1393 37.943 91.8229 37.3397 91.6773 36.6772C91.5507 36.0823 91.4874 35.4388 91.4874 34.7426V28.9873C91.4874 27.8375 91.633 26.9367 91.9242 26.289C92.7111 24.5823 94.3756 23.7299 96.9199 23.7299C98.8524 23.7299 100.279 24.2363 101.203 25.2468C101.698 25.7869 102.013 26.3903 102.15 27.0527C102.276 27.6477 102.34 28.2911 102.34 28.9873ZM94.5782 29.0337V34.6962C94.5782 35.4536 94.6161 35.9705 94.6942 36.2489C94.9748 37.2215 95.7195 37.7067 96.922 37.7067C97.844 37.7067 98.4896 37.4219 98.8588 36.8502C99.0634 36.5422 99.1794 36.2025 99.2089 35.8312C99.2385 35.5232 99.2533 35.1434 99.2533 34.6962V29.0337C99.2533 28.27 99.2153 27.7489 99.1372 27.4704C98.8651 26.5063 98.1267 26.0232 96.9241 26.0232C95.9917 26.0232 95.3419 26.308 94.9727 26.8797C94.768 27.1877 94.652 27.5253 94.6224 27.8882C94.5929 28.2046 94.5782 28.5865 94.5782 29.0337Z" fill="black"/>
<path d="M136.422 26.2194V39.2405C136.422 39.5316 136.186 39.7679 135.895 39.7679H133.861C133.57 39.7679 133.333 39.5316 133.333 39.2405V26.2194H130.002C129.711 26.2194 129.475 25.9831 129.475 25.692V24.4873C129.475 24.1962 129.711 23.9599 130.002 23.9599H139.741C140.032 23.9599 140.268 24.1962 140.268 24.4873V25.692C140.268 25.9831 140.032 26.2194 139.741 26.2194H136.422Z" fill="black"/>
<path d="M144.996 24.4894V39.2426C144.996 39.5338 144.76 39.77 144.468 39.77H142.435C142.144 39.77 141.907 39.5338 141.907 39.2426V24.4894C141.907 24.1983 142.144 23.962 142.435 23.962H144.468C144.76 23.962 144.996 24.1983 144.996 24.4894Z" fill="black"/>
<path d="M158.869 28.9873V34.7426C158.869 35.8924 158.724 36.7932 158.433 37.4409C157.656 39.1477 155.996 40 153.452 40C151.509 40 150.078 39.4937 149.154 38.4831C148.669 37.943 148.352 37.3397 148.207 36.6772C148.08 36.0823 148.017 35.4388 148.017 34.7426V28.9873C148.017 27.8375 148.163 26.9367 148.454 26.289C149.241 24.5823 150.905 23.7299 153.449 23.7299C155.382 23.7299 156.808 24.2363 157.732 25.2468C158.228 25.7869 158.542 26.3903 158.679 27.0527C158.806 27.6477 158.869 28.2911 158.869 28.9873ZM151.106 29.0337V34.6962C151.106 35.4536 151.144 35.9705 151.222 36.2489C151.502 37.2215 152.247 37.7067 153.449 37.7067C154.371 37.7067 155.017 37.4219 155.386 36.8502C155.591 36.5422 155.707 36.2025 155.736 35.8312C155.766 35.5232 155.781 35.1434 155.781 34.6962V29.0337C155.781 28.27 155.743 27.7489 155.665 27.4704C155.393 26.5063 154.654 26.0232 153.452 26.0232C152.519 26.0232 151.869 26.308 151.5 26.8797C151.295 27.1877 151.179 27.5253 151.15 27.8882C151.12 28.2046 151.106 28.5865 151.106 29.0337Z" fill="black"/>
<path d="M117.561 39.768H119.812C120.249 39.768 120.641 39.4979 120.798 39.0886L125.285 27.346L124.122 24.8608C123.924 24.4388 123.314 24.462 123.152 24.8987L117.563 39.7658L117.561 39.768Z" fill="black"/>
<path d="M126.044 29.846L124.608 33.4325L126.717 39.0823C126.871 39.4937 127.266 39.7679 127.705 39.7679H130.184L126.042 29.8439L126.044 29.846Z" fill="black"/>
<path d="M108.194 33.2827V39.2405C108.194 39.5316 107.958 39.7679 107.667 39.7679H105.633C105.342 39.7679 105.106 39.5316 105.106 39.2405V25.0147C105.106 24.4325 105.578 23.9599 106.16 23.9599H109.941C111.65 23.9599 112.96 24.2763 113.874 24.9093C115.057 25.7278 115.65 26.9198 115.65 28.4873C115.65 30.4958 114.758 31.865 112.971 32.5991L115.899 39.7679H113.376C112.947 39.7679 112.559 39.5084 112.399 39.1097L110.03 33.2827H108.194ZM108.194 31.0253H109.317C110.163 31.0253 110.764 30.9641 111.122 30.8396C112.025 30.5316 112.477 29.789 112.477 28.616C112.477 27.751 112.224 27.1223 111.72 26.7278C111.428 26.4894 111.074 26.3417 110.656 26.2869C110.287 26.2405 109.84 26.2173 109.317 26.2173H108.194V31.0232V31.0253Z" fill="black"/>
<path d="M170.5 23.827V34.7806L164.34 23.827H162.116C161.534 23.827 161.061 24.2995 161.061 24.8818V39.9029H163.943V28.7341L170.194 39.3818C170.384 39.7046 170.73 39.9029 171.103 39.9029H173.382V23.827H170.5Z" fill="black"/>
<path d="M49.1266 2.85655H39.1013C38.8101 2.85655 38.5739 3.09284 38.5739 3.38398V5.07808C38.5739 5.36922 38.8101 5.60551 39.1013 5.60551H42.5485V18.5675C42.5485 18.8587 42.7848 19.095 43.076 19.095H45.1118C45.403 19.095 45.6393 18.8587 45.6393 18.5675V5.60551H49.1266C49.4177 5.60551 49.654 5.36922 49.654 5.07808V3.38398C49.654 3.09284 49.4177 2.85655 49.1266 2.85655Z" fill="black"/>
<path d="M96.095 2.85658H94.0592C93.7679 2.85658 93.5317 3.09271 93.5317 3.384V18.5676C93.5317 18.8589 93.7679 19.095 94.0592 19.095H96.095C96.3863 19.095 96.6224 18.8589 96.6224 18.5676V3.384C96.6224 3.09271 96.3863 2.85658 96.095 2.85658Z" fill="black"/>
<path d="M87.9915 2.85658V13.9199L81.77 2.85658H79.5126C78.9303 2.85658 78.4578 3.32915 78.4578 3.91143V19.095H81.3692V7.81227L87.6877 18.5739C87.8776 18.8967 88.2236 19.095 88.597 19.095H90.9029V2.85658H87.9915Z" fill="black"/>
<path d="M106.757 10.6309L110.973 2.85658H108.063L105.245 7.88401L103.639 10.749L98.9579 19.0971H102.165L105.16 13.576L107.829 18.5423C108.013 18.884 108.369 19.0971 108.757 19.0971H111.414L106.757 10.6309Z" fill="black"/>
<path d="M104.319 6.20048L102.781 3.403C102.595 3.06545 102.241 2.85658 101.857 2.85658H99.3988L102.688 8.97473L104.321 6.20257L104.319 6.20048Z" fill="black"/>
<path d="M55.4135 16.4663V11.9494H60.7932V9.32073H55.4135V5.4874H62.5991V2.8587H53.3776C52.7953 2.8587 52.3228 3.33127 52.3228 3.91355V18.0422C52.3228 18.6245 52.7953 19.0971 53.3776 19.0971H63.0822V16.4684H55.4135V16.4663Z" fill="black"/>
<path d="M68.2004 2.85655V7.62239L65.2595 12.9831V3.91141C65.2595 3.32913 65.7321 2.85655 66.3144 2.85655H68.2004Z" fill="black"/>
<path d="M76.209 19.095L73.4664 19.1098C73.055 19.1119 72.6794 18.8756 72.5064 18.5022L70.4685 14.1604L69.9642 13.0865L68.2026 16.249V19.095H65.2617V16.4642L68.2026 11.1055L69.9685 7.88822L72.7301 2.85445H75.6689L71.4157 10.4853L71.8229 11.2173L76.2111 19.0929L76.209 19.095Z" fill="black"/>
<path d="M116.217 12.7954V9.53376H116.77V12.7954H116.217Z" fill="black"/>
<path d="M117.812 12.7953V10.3945H118.319L118.344 10.6476C118.452 10.5632 118.58 10.4915 118.732 10.4324C118.882 10.3734 119.049 10.3438 119.23 10.3438C119.54 10.3438 119.766 10.4156 119.909 10.5611C120.051 10.7067 120.122 10.9324 120.122 11.2405V12.7953H119.576V11.2658C119.576 11.0801 119.538 10.9493 119.462 10.8755C119.386 10.8016 119.243 10.7637 119.034 10.7637C118.909 10.7637 118.787 10.789 118.667 10.8396C118.546 10.8902 118.447 10.9556 118.365 11.0379V12.7953H117.812Z" fill="black"/>
<path d="M121.144 12.7953V10.3945H121.65L121.675 10.6476C121.783 10.5632 121.911 10.4915 122.063 10.4324C122.213 10.3734 122.38 10.3438 122.563 10.3438C122.874 10.3438 123.099 10.4156 123.241 10.5611C123.382 10.7067 123.454 10.9324 123.454 11.2405V12.7953H122.907V11.2658C122.907 11.0801 122.869 10.9493 122.793 10.8755C122.717 10.8016 122.574 10.7637 122.365 10.7637C122.241 10.7637 122.118 10.789 121.998 10.8396C121.878 10.8902 121.779 10.9556 121.696 11.0379V12.7953H121.144Z" fill="black"/>
<path d="M125.574 12.8459C125.141 12.8459 124.825 12.7383 124.625 12.521C124.424 12.3059 124.323 11.9957 124.323 11.5949C124.323 11.194 124.424 10.8839 124.627 10.6687C124.829 10.4535 125.146 10.3438 125.574 10.3438C126.002 10.3438 126.323 10.4514 126.525 10.6687C126.728 10.8839 126.829 11.194 126.829 11.5949C126.829 11.9957 126.728 12.3059 126.528 12.521C126.327 12.7362 126.009 12.8459 125.574 12.8459ZM125.574 12.3797C125.827 12.3797 126.006 12.3185 126.112 12.194C126.217 12.0696 126.272 11.8713 126.272 11.5949C126.272 11.3185 126.219 11.1181 126.112 10.9978C126.004 10.8776 125.825 10.8164 125.574 10.8164C125.323 10.8164 125.146 10.8776 125.04 10.9978C124.935 11.1181 124.88 11.3185 124.88 11.5949C124.88 11.8713 124.933 12.0717 125.04 12.194C125.148 12.3164 125.325 12.3797 125.574 12.3797Z" fill="black"/>
<path d="M128.338 12.7954L127.39 10.3946H127.962L128.635 12.2574L129.308 10.3946H129.876L128.935 12.7954H128.338Z" fill="black"/>
<path d="M131.346 12.8461C131.194 12.8461 131.053 12.8186 130.924 12.7659C130.795 12.7131 130.69 12.6309 130.612 12.5212C130.534 12.4114 130.496 12.2764 130.496 12.114C130.496 11.884 130.574 11.7005 130.732 11.5591C130.888 11.4199 131.131 11.3482 131.458 11.3482H132.228V11.2427C132.228 11.1287 132.211 11.0359 132.175 10.9684C132.139 10.9009 132.076 10.8524 131.983 10.8207C131.89 10.7912 131.755 10.7743 131.576 10.7743C131.293 10.7743 131.027 10.8165 130.781 10.9009V10.4916C130.888 10.4473 131.019 10.4114 131.175 10.3861C131.331 10.3608 131.498 10.346 131.677 10.346C132.027 10.346 132.295 10.4178 132.479 10.5591C132.663 10.7005 132.755 10.9325 132.755 11.2532V12.7975H132.285L132.249 12.5549C132.152 12.6499 132.03 12.7216 131.888 12.7722C131.745 12.8228 131.565 12.8482 131.348 12.8482L131.346 12.8461ZM131.494 12.4515C131.66 12.4515 131.804 12.4241 131.926 12.3671C132.049 12.3123 132.15 12.2363 132.228 12.1414V11.7216H131.468C131.306 11.7216 131.19 11.7532 131.116 11.8144C131.042 11.8756 131.006 11.9726 131.006 12.1013C131.006 12.23 131.049 12.3165 131.133 12.3693C131.217 12.422 131.338 12.4494 131.492 12.4494L131.494 12.4515Z" fill="black"/>
<path d="M134.688 12.846C134.43 12.846 134.241 12.7785 134.114 12.6414C133.987 12.5042 133.924 12.3186 133.924 12.0823V10.827H133.57V10.3966H133.924V9.84389L134.471 9.67722V10.3966H135.108L135.072 10.827H134.468V12.0528C134.468 12.192 134.5 12.289 134.566 12.3439C134.629 12.3987 134.734 12.4283 134.88 12.4283C134.971 12.4283 135.068 12.4114 135.169 12.3776V12.7679C135.038 12.8228 134.878 12.8481 134.688 12.8481V12.846Z" fill="black"/>
<path d="M137.209 12.8461C136.791 12.8461 136.466 12.7427 136.236 12.538C136.006 12.3334 135.892 12.0169 135.892 11.5908C135.892 11.2068 135.99 10.903 136.186 10.6794C136.382 10.4558 136.679 10.346 137.076 10.346C137.441 10.346 137.715 10.441 137.899 10.633C138.082 10.8228 138.175 11.0697 138.175 11.3693V11.8144H136.418C136.445 12.0465 136.53 12.2068 136.671 12.2954C136.812 12.384 137.03 12.4262 137.319 12.4262C137.441 12.4262 137.565 12.4136 137.694 12.3904C137.823 12.3671 137.935 12.3355 138.027 12.2996V12.7047C137.92 12.7511 137.795 12.787 137.656 12.8102C137.517 12.8334 137.367 12.8461 137.209 12.8461ZM136.42 11.4536H137.69V11.287C137.69 11.1224 137.644 10.9916 137.553 10.8988C137.462 10.806 137.308 10.7596 137.093 10.7596C136.836 10.7596 136.66 10.8144 136.563 10.9262C136.466 11.038 136.42 11.2131 136.42 11.4536Z" fill="black"/>
<path d="M117.063 19.1245V16.2932H116.021V15.8629H118.654V16.2932H117.616V19.1245H117.063Z" fill="black"/>
<path d="M119.498 19.1245V15.711H120.051V16.9557C120.156 16.8714 120.281 16.8038 120.426 16.7511C120.572 16.6984 120.734 16.673 120.918 16.673C121.222 16.673 121.445 16.7448 121.591 16.8903C121.736 17.0359 121.808 17.2616 121.808 17.5697V19.1245H121.262V17.595C121.262 17.4093 121.222 17.2785 121.144 17.2047C121.063 17.1308 120.926 17.0929 120.73 17.0929C120.608 17.0929 120.485 17.1182 120.361 17.1709C120.236 17.2237 120.133 17.2912 120.053 17.3756V19.1224H119.5L119.498 19.1245Z" fill="black"/>
<path d="M123.994 19.1752C123.576 19.1752 123.251 19.0718 123.021 18.8671C122.791 18.6625 122.677 18.346 122.677 17.9199C122.677 17.5359 122.774 17.2321 122.97 17.0085C123.167 16.7849 123.464 16.6752 123.861 16.6752C124.226 16.6752 124.5 16.7701 124.684 16.9621C124.867 17.1519 124.96 17.3988 124.96 17.6984V18.1435H123.203C123.23 18.3756 123.314 18.5359 123.456 18.6245C123.597 18.7131 123.814 18.7553 124.103 18.7553C124.226 18.7553 124.35 18.7427 124.479 18.7195C124.608 18.6963 124.717 18.6646 124.812 18.6287V19.0338C124.705 19.0802 124.58 19.1161 124.441 19.1393C124.3 19.1625 124.152 19.1752 123.994 19.1752ZM123.205 17.7828H124.475V17.6161C124.475 17.4515 124.43 17.3207 124.338 17.2279C124.247 17.1351 124.093 17.0887 123.876 17.0887C123.62 17.0887 123.443 17.1435 123.346 17.2553C123.249 17.3671 123.203 17.5422 123.203 17.7828H123.205Z" fill="black"/>
<path d="M127.473 19.1245V15.8629H129.69V16.2932H128.023V17.2806H129.502V17.7067H128.023V19.1245H127.471H127.473Z" fill="black"/>
<path d="M131.219 19.1752C130.932 19.1752 130.713 19.095 130.559 18.9368C130.405 18.7785 130.329 18.5444 130.329 18.2384V16.7237H130.882V18.2384C130.882 18.4178 130.926 18.5486 131.013 18.633C131.101 18.7173 131.236 18.7595 131.418 18.7595C131.553 18.7595 131.677 18.7342 131.793 18.6836C131.907 18.633 132.008 18.5654 132.093 18.4811V16.7237H132.639V19.1245H132.137L132.112 18.8756C132.004 18.96 131.876 19.0317 131.728 19.0886C131.58 19.1456 131.411 19.1752 131.222 19.1752H131.219Z" fill="black"/>
<path d="M134.601 19.1751C134.344 19.1751 134.154 19.1076 134.027 18.9704C133.901 18.8333 133.838 18.6476 133.838 18.4114V17.1561H133.483V16.7257H133.838V16.173L134.384 16.0063V16.7257H135.021L134.985 17.1561H134.382V18.3818C134.382 18.5211 134.414 18.6181 134.479 18.673C134.542 18.7278 134.648 18.7573 134.793 18.7573C134.884 18.7573 134.981 18.7405 135.082 18.7067V19.097C134.952 19.1519 134.791 19.1772 134.601 19.1772V19.1751Z" fill="black"/>
<path d="M136.774 19.1752C136.487 19.1752 136.268 19.095 136.114 18.9368C135.96 18.7785 135.884 18.5444 135.884 18.2384V16.7237H136.437V18.2384C136.437 18.4178 136.481 18.5486 136.568 18.633C136.656 18.7173 136.791 18.7595 136.973 18.7595C137.108 18.7595 137.232 18.7342 137.348 18.6836C137.462 18.633 137.563 18.5654 137.648 18.4811V16.7237H138.194V19.1245H137.692L137.667 18.8756C137.559 18.96 137.43 19.0317 137.283 19.0886C137.135 19.1456 136.966 19.1752 136.776 19.1752H136.774Z" fill="black"/>
<path d="M139.241 19.1245V16.7236H139.747L139.776 17.0021C139.89 16.9283 140.027 16.8608 140.188 16.7996C140.348 16.7384 140.504 16.6962 140.658 16.673V17.0928C140.563 17.1097 140.462 17.135 140.352 17.1667C140.243 17.1983 140.139 17.2342 140.04 17.2722C139.943 17.3101 139.859 17.3502 139.791 17.3903V19.1224H139.238L139.241 19.1245Z" fill="black"/>
<path d="M142.576 19.1752C142.158 19.1752 141.833 19.0718 141.603 18.8671C141.373 18.6625 141.26 18.346 141.26 17.9199C141.26 17.5359 141.357 17.2321 141.553 17.0085C141.749 16.7849 142.046 16.6752 142.443 16.6752C142.808 16.6752 143.082 16.7701 143.266 16.9621C143.449 17.1519 143.542 17.3988 143.542 17.6984V18.1435H141.785C141.812 18.3756 141.897 18.5359 142.038 18.6245C142.179 18.7131 142.397 18.7553 142.686 18.7553C142.808 18.7553 142.933 18.7427 143.061 18.7195C143.19 18.6963 143.302 18.6646 143.395 18.6287V19.0338C143.287 19.0802 143.162 19.1161 143.023 19.1393C142.884 19.1625 142.734 19.1752 142.576 19.1752ZM141.787 17.7828H143.057V17.6161C143.057 17.4515 143.011 17.3207 142.92 17.2279C142.829 17.1351 142.675 17.0887 142.46 17.0887C142.203 17.0887 142.027 17.1435 141.93 17.2553C141.833 17.3671 141.787 17.5422 141.787 17.7828Z" fill="black"/>
<path d="M5.79115 5.44732C5.77638 5.44732 5.7595 5.44311 5.74684 5.43467C5.72574 5.42201 5.71097 5.40302 5.70464 5.37981L5.62025 5.06124C5.60759 5.01272 5.63714 4.96419 5.68355 4.95154L21.249 0.822839C21.249 0.822839 21.2637 0.82074 21.2722 0.82074C21.3122 0.82074 21.3481 0.848155 21.3587 0.888239L21.443 1.20681C21.4494 1.23001 21.4452 1.25533 21.4346 1.27432C21.422 1.29542 21.403 1.31019 21.3798 1.31652L5.81435 5.44521C5.81435 5.44521 5.79959 5.44732 5.79115 5.44732Z" fill="black"/>
<path d="M33.2362 12.7996C33.213 12.7996 33.1898 12.7911 33.173 12.7722L21.9388 1.43882C21.9029 1.40295 21.9029 1.34598 21.9388 1.31223L22.1729 1.08016C22.1898 1.06329 22.213 1.05485 22.2362 1.05485C22.2594 1.05485 22.2827 1.0654 22.2995 1.08227L33.5337 12.4156C33.5506 12.4325 33.559 12.4557 33.559 12.4789C33.559 12.5021 33.5485 12.5253 33.5316 12.5422L33.2974 12.7743C33.2805 12.7911 33.2573 12.7996 33.2341 12.7996H33.2362Z" fill="black"/>
<path d="M33.6688 13.2828C33.6688 13.2828 33.6519 13.2828 33.6456 13.2807L5.98313 5.79963C5.95992 5.7933 5.94093 5.77853 5.92827 5.75744C5.91562 5.73634 5.91351 5.71102 5.91984 5.68992L6.00633 5.37136C6.01688 5.33127 6.05275 5.30386 6.09284 5.30386C6.10128 5.30386 6.1076 5.30385 6.11604 5.30595L33.7785 12.787C33.827 12.7996 33.8545 12.8503 33.8418 12.8967L33.7553 13.2153C33.749 13.2385 33.7342 13.2574 33.7131 13.2701C33.6983 13.2785 33.6836 13.2828 33.6688 13.2828Z" fill="black"/>
<path d="M19.8756 9.37977C19.8756 9.37977 19.8608 9.37978 19.8524 9.37767L19.5338 9.29539C19.4853 9.28273 19.4557 9.2342 19.4684 9.18568L21.4768 1.39243C21.4874 1.35234 21.5232 1.32491 21.5633 1.32491C21.5697 1.32491 21.5781 1.32492 21.5865 1.32702L21.9051 1.40931C21.9283 1.41564 21.9473 1.43041 21.9599 1.4515C21.9726 1.4726 21.9747 1.49581 21.9705 1.51902L19.9621 9.31227C19.9557 9.33548 19.941 9.35445 19.9199 9.36711C19.9051 9.37555 19.8903 9.37977 19.8735 9.37977H19.8756Z" fill="black"/>
<path d="M8.98312 19.3481C8.96835 19.3481 8.95148 19.3439 8.93883 19.3354C8.91773 19.3228 8.90296 19.3038 8.89663 19.2806L5.2405 5.61814C5.22785 5.56961 5.25527 5.52109 5.30379 5.50843L5.62236 5.42403C5.62236 5.42403 5.63714 5.42194 5.64558 5.42194C5.66035 5.42194 5.67721 5.42615 5.68987 5.43459C5.71097 5.44725 5.72574 5.46623 5.73207 5.48944L9.38608 19.1519C9.39874 19.2004 9.37132 19.249 9.32279 19.2616L9.00423 19.346C9.00423 19.346 8.98946 19.3481 8.98102 19.3481H8.98312Z" fill="black"/>
<path d="M1.22147 21.6562C1.22147 21.6562 1.20459 21.6562 1.19827 21.6519L0.88181 21.5654C0.858603 21.5591 0.839613 21.5443 0.826955 21.5232C0.814297 21.5021 0.812192 21.4768 0.818521 21.4557L5.24257 5.35657C5.25312 5.31648 5.28899 5.29117 5.32908 5.29117C5.33751 5.29117 5.34595 5.29116 5.35228 5.29538L5.66874 5.38188C5.69194 5.38821 5.71093 5.40297 5.72359 5.42407C5.73625 5.44516 5.73835 5.47048 5.73202 5.49158L1.30797 21.5907C1.29743 21.6308 1.26155 21.6562 1.22147 21.6562Z" fill="black"/>
<path d="M12.9747 34.0591C12.9515 34.0591 12.9283 34.0507 12.9114 34.0317L1.15401 22.2806C1.13714 22.2638 1.12659 22.2406 1.12659 22.2174C1.12659 22.1942 1.13502 22.1709 1.1519 22.1541L1.38398 21.922C1.40086 21.9051 1.42406 21.8946 1.44727 21.8946C1.47047 21.8946 1.49368 21.903 1.51056 21.922L13.2679 33.6731C13.2848 33.6899 13.2954 33.7131 13.2954 33.7364C13.2954 33.7596 13.2869 33.7828 13.2701 33.7996L13.038 34.0317C13.0211 34.0486 12.9979 34.0591 12.9747 34.0591Z" fill="black"/>
<path d="M13.2067 34.0591C13.1835 34.0591 13.1603 34.0507 13.1434 34.0338L12.9093 33.8017C12.8924 33.7848 12.8818 33.7616 12.8818 33.7384C12.8818 33.7152 12.8903 33.692 12.9072 33.6751L33.2996 13.135C33.3164 13.1182 33.3397 13.1076 33.3629 13.1076C33.3861 13.1076 33.4093 13.1161 33.4262 13.1329L33.6603 13.365C33.6962 13.4009 33.6962 13.4578 33.6603 13.4916L13.2679 34.0317C13.251 34.0486 13.2278 34.0591 13.2046 34.0591H13.2067Z" fill="black"/>
<path d="M1.37135 21.8946C1.33126 21.8946 1.29328 21.8671 1.28273 21.825L1.20467 21.5064C1.19834 21.4832 1.20468 21.4579 1.21523 21.4389C1.22789 21.4178 1.24687 21.403 1.27007 21.3988L9.47895 19.3882C9.47895 19.3882 9.49371 19.3861 9.50004 19.3861C9.54012 19.3861 9.57811 19.4135 9.58866 19.4557L9.66671 19.7743C9.67304 19.7975 9.6667 19.8228 9.65616 19.8418C9.6435 19.8629 9.62452 19.8777 9.60131 19.8819L1.39244 21.8925C1.39244 21.8925 1.37768 21.8946 1.37135 21.8946Z" fill="black"/>
<path d="M9.88822 19.4704C9.86501 19.4704 9.84181 19.462 9.82493 19.4451L9.59074 19.2152C9.55488 19.1793 9.55488 19.1223 9.59074 19.0886L19.403 9.11811C19.4199 9.09912 19.4431 9.09068 19.4663 9.09068C19.4895 9.09068 19.5127 9.09912 19.5296 9.116L19.7638 9.34596C19.7806 9.36284 19.7912 9.38604 19.7912 9.40925C19.7912 9.43246 19.7827 9.45566 19.7659 9.47254L9.95362 19.443C9.93674 19.4599 9.91354 19.4704 9.89033 19.4704H9.88822Z" fill="black"/>
<path d="M23.1287 23.1287C23.1139 23.1287 23.0971 23.1245 23.0844 23.1182C23.0633 23.1055 23.0485 23.0866 23.0422 23.0633L19.3376 9.75109C19.3312 9.72789 19.3333 9.70257 19.346 9.68358C19.3587 9.66459 19.3776 9.64773 19.4008 9.6414L19.7173 9.55278C19.7173 9.55278 19.7342 9.54857 19.7405 9.54857C19.7806 9.54857 19.8165 9.57388 19.827 9.61397L23.5317 22.9262C23.5443 22.9747 23.5169 23.0233 23.4684 23.038L23.1519 23.1266C23.1519 23.1266 23.135 23.1309 23.1287 23.1309V23.1287Z" fill="black"/>
<path d="M29.0844 29.384C29.0612 29.384 29.038 29.3756 29.0211 29.3587L23.2974 23.7659C23.2806 23.749 23.27 23.7258 23.27 23.7026C23.27 23.6794 23.2785 23.6562 23.2953 23.6393L23.5253 23.403C23.5422 23.3861 23.5654 23.3756 23.5907 23.3756C23.616 23.3756 23.6371 23.384 23.654 23.4009L29.3776 28.9937C29.4135 29.0296 29.4135 29.0866 29.3776 29.1203L29.1477 29.3566C29.1308 29.3735 29.1076 29.384 29.0844 29.384Z" fill="black"/>
<path d="M29.7828 29.1772C29.7828 29.1772 29.768 29.1772 29.7596 29.1751L29.441 29.0907C29.3925 29.0781 29.3651 29.0296 29.3777 28.981L33.4663 13.4093C33.4769 13.3692 33.5127 13.3418 33.5528 13.3418C33.5613 13.3418 33.5676 13.3418 33.576 13.3439L33.8946 13.4262C33.9178 13.4325 33.9368 13.4473 33.9494 13.4684C33.9621 13.4894 33.9642 13.5127 33.9579 13.5359L29.8693 29.1097C29.8629 29.1329 29.8482 29.1519 29.8271 29.1646C29.8123 29.173 29.7975 29.1772 29.7807 29.1772H29.7828Z" fill="black"/>
<path d="M22.8544 23.4157C22.8544 23.4157 22.8396 23.4157 22.8312 23.4136L9.80588 20.0359C9.75736 20.0233 9.72782 19.9747 9.74048 19.9262L9.82276 19.6077C9.82909 19.5845 9.84386 19.5655 9.86496 19.5528C9.87973 19.5444 9.89449 19.5401 9.91137 19.5401C9.91981 19.5401 9.92613 19.5401 9.93457 19.5423L22.9599 22.9199C23.0084 22.9326 23.038 22.9811 23.0253 23.0296L22.943 23.3482C22.9367 23.3714 22.9219 23.3904 22.9008 23.403C22.8861 23.4115 22.8713 23.4157 22.8544 23.4157Z" fill="black"/>
<path d="M12.8249 33.4958C12.7849 33.4958 12.749 33.4705 12.7384 33.4304L9.23001 20.6498C9.21735 20.6013 9.24477 20.5527 9.29329 20.5401L9.60975 20.4536C9.60975 20.4536 9.62663 20.4494 9.63295 20.4494C9.64772 20.4494 9.6646 20.4536 9.67726 20.462C9.69836 20.4747 9.71313 20.4937 9.71946 20.5169L13.2279 33.2975C13.2342 33.3207 13.2321 33.346 13.2195 33.365C13.2068 33.384 13.1878 33.4009 13.1646 33.4072L12.8481 33.4937C12.8481 33.4937 12.8313 33.4979 12.8249 33.4979V33.4958Z" fill="black"/>
<path d="M11.6941 39.768C11.5991 39.768 11.5042 39.7363 11.4282 39.6773C11.289 39.5697 11.2278 39.3882 11.2742 39.2174L12.6983 33.9473C12.7046 33.9241 12.7194 33.9051 12.7405 33.8924C12.7552 33.884 12.77 33.8798 12.7848 33.8798C12.7932 33.8798 12.8017 33.8798 12.808 33.8819L13.1266 33.9684C13.1751 33.9811 13.2025 34.0317 13.1898 34.0781L11.8122 39.1773L29.2447 29.1963C29.2574 29.1878 29.2742 29.1836 29.289 29.1836C29.2975 29.1836 29.3059 29.1836 29.3122 29.1878C29.3354 29.1941 29.3544 29.2089 29.3671 29.23L29.5295 29.5148C29.5548 29.5591 29.5401 29.614 29.4958 29.6372L11.9114 39.7068C11.846 39.7448 11.77 39.7638 11.6941 39.7638V39.768Z" fill="black"/>
<path d="M12.9853 34.7026C13.5725 34.7026 14.0486 34.2265 14.0486 33.6393C14.0486 33.052 13.5725 32.576 12.9853 32.576C12.398 32.576 11.922 33.052 11.922 33.6393C11.922 34.2265 12.398 34.7026 12.9853 34.7026Z" fill="black"/>
<path d="M1.06329 22.7089C1.65053 22.7089 2.12657 22.2328 2.12657 21.6456C2.12657 21.0584 1.65053 20.5823 1.06329 20.5823C0.476047 20.5823 0 21.0584 0 21.6456C0 22.2328 0.476047 22.7089 1.06329 22.7089Z" fill="black"/>
<path d="M9.25532 20.6962C9.84256 20.6962 10.3186 20.2202 10.3186 19.6329C10.3186 19.0457 9.84256 18.5696 9.25532 18.5696C8.66808 18.5696 8.19202 19.0457 8.19202 19.6329C8.19202 20.2202 8.66808 20.6962 9.25532 20.6962Z" fill="black"/>
<path d="M21.8312 2.1266C22.4185 2.1266 22.8945 1.65054 22.8945 1.0633C22.8945 0.476055 22.4185 7.62939e-06 21.8312 7.62939e-06C21.244 7.62939e-06 20.7679 0.476055 20.7679 1.0633C20.7679 1.65054 21.244 2.1266 21.8312 2.1266Z" fill="black"/>
<path d="M5.48737 6.48523C6.07461 6.48523 6.55066 6.00918 6.55066 5.42194C6.55066 4.8347 6.07461 4.35864 5.48737 4.35864C4.90013 4.35864 4.42407 4.8347 4.42407 5.42194C4.42407 6.00918 4.90013 6.48523 5.48737 6.48523Z" fill="black"/>
<path d="M23.2869 24.2278C23.8742 24.2278 24.3502 23.7518 24.3502 23.1646C24.3502 22.5773 23.8742 22.1013 23.2869 22.1013C22.6997 22.1013 22.2236 22.5773 22.2236 23.1646C22.2236 23.7518 22.6997 24.2278 23.2869 24.2278Z" fill="black"/>
<path d="M33.7131 14.0971C34.3003 14.0971 34.7764 13.621 34.7764 13.0338C34.7764 12.4465 34.3003 11.9705 33.7131 11.9705C33.1258 11.9705 32.6498 12.4465 32.6498 13.0338C32.6498 13.621 33.1258 14.0971 33.7131 14.0971Z" fill="black"/>
<path d="M29.3713 30.4832C29.9585 30.4832 30.4346 30.0071 30.4346 29.4199C30.4346 28.8326 29.9585 28.3566 29.3713 28.3566C28.784 28.3566 28.308 28.8326 28.308 29.4199C28.308 30.0071 28.784 30.4832 29.3713 30.4832Z" fill="black"/>
<path d="M19.5823 10.3439C20.1696 10.3439 20.6456 9.86786 20.6456 9.28062C20.6456 8.69338 20.1696 8.21733 19.5823 8.21733C18.9951 8.21733 18.519 8.69338 18.519 9.28062C18.519 9.86786 18.9951 10.3439 19.5823 10.3439Z" fill="black"/>
</svg>
